<?xml version="1.0" standalone="no"?><!DOCTYPE svg PUBLIC "-//W3C//DTD SVG 1.1//EN" "http://www.w3.org/Graphics/SVG/1.1/DTD/svg11.dtd"><svg t="1560932201802" class="icon" style="" viewBox="0 0 1024 1024" version="1.1" xmlns="http://www.w3.org/2000/svg" p-id="2063" xmlns:xlink="http://www.w3.org/1999/xlink" width="200" height="200"><defs><style type="text/css"></style></defs><path d="M664.520211 1024H359.929701a229.905097 229.905097 0 0 1-229.455184-229.455185V230.355009a33.743409 33.743409 0 0 1 67.036907 0v564.189806A162.418278 162.418278 0 0 0 359.929701 956.963093h304.140598a162.418278 162.418278 0 0 0 162.418277-162.418278V230.355009a33.743409 33.743409 0 0 1 67.036907 0v564.189806a229.905097 229.905097 0 0 1-229.005272 229.455185z" fill="#d81e06" p-id="2064"></path><path d="M33.743409 146.671353h957.413006" fill="#d81e06" p-id="2065"></path><path d="M989.806678 179.964851H33.743409a33.743409 33.743409 0 0 1 0-67.036907H989.806678A33.743409 33.743409 0 0 1 989.806678 179.964851z" fill="#d81e06" p-id="2066"></path><path d="M324.386643 343.282953v429.66608" fill="#d81e06" p-id="2067"></path><path d="M324.386643 804.892794a31.943761 31.943761 0 0 1-31.943761-31.943761V343.282953a31.943761 31.943761 0 0 1 64.337434 0v429.66608a31.943761 31.943761 0 0 1-32.393673 31.943761z" fill="#d81e06" p-id="2068"></path><path d="M512.449912 343.282953v429.66608" fill="#d81e06" p-id="2069"></path><path d="M512.449912 804.892794a31.943761 31.943761 0 0 1-31.943761-31.943761V343.282953a31.943761 31.943761 0 1 1 64.337434 0v429.66608a31.943761 31.943761 0 0 1-32.393673 31.943761z" fill="#d81e06" p-id="2070"></path><path d="M700.063269 343.282953v429.66608" fill="#d81e06" p-id="2071"></path><path d="M700.063269 804.892794a31.943761 31.943761 0 0 1-31.943761-31.943761V343.282953a31.943761 31.943761 0 1 1 64.337434 0v429.66608a31.943761 31.943761 0 0 1-32.393673 31.943761zM584.885764 0H441.363796a146.671353 146.671353 0 0 0-146.221441 146.671353h434.615114A146.671353 146.671353 0 0 0 584.885764 0z" fill="#d81e06" p-id="2072"></path></svg>